<?xml version="1.0" encoding="UTF-8" standalone="no"?>
<!-- Created with Inkscape (http://www.inkscape.org/) -->

<svg
   xmlns:dc="http://purl.org/dc/elements/1.1/"
   xmlns:cc="http://creativecommons.org/ns#"
   xmlns:rdf="http://www.w3.org/1999/02/22-rdf-syntax-ns#"
   xmlns:svg="http://www.w3.org/2000/svg"
   xmlns="http://www.w3.org/2000/svg"
   xmlns:sodipodi="http://sodipodi.sourceforge.net/DTD/sodipodi-0.dtd"
   xmlns:inkscape="http://www.inkscape.org/namespaces/inkscape"
   width="67.984703mm"
   height="42.732998mm"
   viewBox="0 0 240.89067 151.41613"
   id="svg2"
   version="1.1"
   inkscape:version="0.91 r13725"
   sodipodi:docname="bundle-bee.svg">
  <defs
     id="defs4" />
  <sodipodi:namedview
     id="base"
     pagecolor="#ffffff"
     bordercolor="#666666"
     borderopacity="1.0"
     inkscape:pageopacity="0.0"
     inkscape:pageshadow="2"
     inkscape:zoom="0.68"
     inkscape:cx="-170.04085"
     inkscape:cy="-75.190962"
     inkscape:document-units="px"
     inkscape:current-layer="layer1"
     showgrid="false"
     inkscape:window-width="1280"
     inkscape:window-height="712"
     inkscape:window-x="0"
     inkscape:window-y="0"
     inkscape:window-maximized="1"
     fit-margin-top="0"
     fit-margin-left="0"
     fit-margin-right="0"
     fit-margin-bottom="0" />
  <metadata
     id="metadata7">
    <rdf:RDF>
      <cc:Work
         rdf:about="">
        <dc:format>image/svg+xml</dc:format>
        <dc:type
           rdf:resource="http://purl.org/dc/dcmitype/StillImage" />
        <dc:title />
      </cc:Work>
    </rdf:RDF>
  </metadata>
  <g
     inkscape:label="Layer 1"
     inkscape:groupmode="layer"
     id="layer1"
     transform="translate(-29.016521,-19.28223)">
    <ellipse
       style="opacity:1;fill:#000000;fill-opacity:1;stroke:#000000;stroke-width:0.62934524;stroke-linejoin:round;stroke-miterlimit:4;stroke-dasharray:none;stroke-opacity:0.16470588"
       id="path3336"
       cx="113.26675"
       cy="113.68052"
       rx="17.133375"
       ry="24.909952"
       transform="matrix(0.9644882,-0.26412594,0.28449965,0.95867614,0,0)" />
    <ellipse
       style="opacity:1;fill:#000000;fill-opacity:1;stroke:#000000;stroke-width:0.63124013;stroke-linejoin:round;stroke-miterlimit:4;stroke-dasharray:none;stroke-opacity:0.16470588"
       id="path3338"
       cx="50.268719"
       cy="127.4051"
       rx="51.872234"
       ry="33.360294"
       transform="matrix(0.96373604,-0.26685736,0.27189604,0.96232663,0,0)" />
    <path
       style="fill:none;fill-rule:evenodd;stroke:#000000;stroke-width:0.782368px;stroke-linecap:butt;stroke-linejoin:miter;stroke-opacity:1"
       d="m 95.288425,70.08348 c 0,-2.556027 0,-5.112054 0,-7.668085 0,-0.511207 0.168286,-1.048646 0,-1.533618 -0.376292,-1.084432 -1.220194,-1.982805 -1.596485,-3.067236 -0.168286,-0.484973 0.237988,-1.076381 0,-1.533618 -0.336572,-0.64663 -1.259915,-0.886988 -1.596486,-1.533618 -0.237988,-0.457236 0.168285,-1.048646 0,-1.533618 -0.841292,-2.424481 -2.561777,-4.707835 -4.78946,-6.134471 -0.442785,-0.283566 -1.120509,0.228618 -1.596486,0 -1.346276,-0.64663 -1.846694,-2.420606 -3.192971,-3.067236 -0.475976,-0.228619 -1.120509,0.228618 -1.596485,0 -0.673135,-0.323315 -0.882514,-1.305 -1.596486,-1.533618 -1.009705,-0.323315 -2.183266,0.323315 -3.192971,0 -0.713972,-0.228619 -0.923351,-1.210303 -1.596486,-1.533618 -0.475976,-0.228618 -1.091629,0.161657 -1.596485,0 -1.128883,-0.361477 -2.064088,-1.172141 -3.192971,-1.533618 -0.504857,-0.161657 -1.220194,0.361477 -1.596486,0 -0.376292,-0.361477 0.376292,-1.172141 0,-1.533617 -0.376292,-0.361478 -1.596486,0.511205 -1.596486,0 0,-0.511207 1.064321,0 1.596486,0 1.596486,0 3.192971,0 4.789457,0 1.596485,0 3.254396,-0.421318 4.789456,0 2.376194,0.652178 9.022124,4.410738 11.175403,6.134471 1.063371,0.851245 8.049081,8.221979 9.578913,9.201707 0.442786,0.283566 1.220194,-0.361477 1.596484,0 0.37629,0.361477 -0.37629,1.172141 0,1.533618 3.66895,3.524473 3.19298,-0.39757 3.19298,3.067236 0,0.511205 0.37629,1.895095 0,1.533618 -3.486364,-3.349072 -0.33187,-2.489993 -1.59649,-6.134472 -0.0417,-0.120348 -4.664175,-4.560738 -4.789459,-4.600853 -1.009706,-0.323315 -2.183266,0.323315 -3.192971,0 -0.713973,-0.228619 -0.970297,-1.132596 -1.596486,-1.533618 -1.980193,-1.268147 -4.405753,-1.79909 -6.385946,-3.067236 -0.626189,-0.401023 -0.970296,-1.132595 -1.596485,-1.533618 -0.990101,-0.634073 -2.202871,-0.899545 -3.192971,-1.533618 -0.62619,-0.401023 -0.882514,-1.305 -1.596486,-1.533618 -1.009705,-0.323315 -2.160428,0.247972 -3.192971,0 -1.154419,-0.27724 -2.064088,-1.172141 -3.192971,-1.533617 -1.002042,-0.320861 -5.100716,0 -6.385943,0 -0.387187,0 -4.738113,-0.04932 -4.789456,0 -0.326378,0.313527 0.316495,3.992786 0,4.600853 -0.336571,0.64663 -1.358498,0.847763 -1.596486,1.533618 -0.504857,1.454917 0,3.067236 0,4.600854 0,2.556029 0,5.112059 0,7.668089 0,1.022412 0,2.044823 0,3.067236 0,0.511205 -0.237988,1.076381 0,1.533618 0.336571,0.64663 1.259915,0.886988 1.596486,1.533618 0.237988,0.457236 -0.237988,1.076381 0,1.533614 0.336571,0.646634 1.064321,1.022417 1.596485,1.533617 0.532165,0.511209 0.923352,1.210309 1.596486,1.533618 0.95196,0.457241 2.44038,-0.722947 3.192971,0 0.376292,0.361482 -0.376292,1.172144 0,1.533618 0.752591,0.722955 2.241011,-0.457233 3.192971,0 1.346277,0.646635 1.846695,2.420609 3.192971,3.067236 0.475977,0.228624 1.091629,-0.161651 1.596486,0 1.128883,0.361481 2.038552,1.256378 3.192971,1.533618 1.032543,0.247978 2.183266,-0.32331 3.192971,0 0.713973,0.228624 0.923352,1.210308 1.596486,1.533618 0.95196,0.45724 2.241011,-0.457233 3.192971,0 0.673134,0.323317 0.923351,1.210308 1.596489,1.533618 0.475976,0.228624 1.064321,0 1.596485,0 1.064321,0 2.12865,0 3.192972,0"
       id="path3340"
       inkscape:connector-curvature="0" />
    <path
       style="fill:none;fill-rule:evenodd;stroke:#000000;stroke-width:0.782368px;stroke-linecap:butt;stroke-linejoin:miter;stroke-opacity:1"
       d="m 108.06031,74.684334 c 19.12615,-22.966219 2.61425,0.134191 6.38595,-10.735325 0.47597,-1.371707 2.51983,-1.773972 3.19297,-3.067232 0.25437,-0.488724 0,-6.297462 0,-7.66809 0,-3.067235 0,-6.134471 0,-9.201707 0,-1.022412 0.33657,-2.097291 0,-3.067236 -0.37629,-1.084432 -0.75507,-2.258948 -1.59649,-3.067235 -0.37629,-0.361478 -1.09163,0.161657 -1.59648,0 -5.78773,-1.853271 -1.13621,-0.727648 -4.78946,-3.067236 -0.9901,-0.634074 -2.20287,-0.899545 -3.19297,-1.533618 -0.62619,-0.401024 -0.92335,-1.210303 -1.59649,-1.533618 -0.47597,-0.228619 -1.06432,0 -1.59648,0 -1.59649,0 -3.361527,-0.685855 -4.789464,0 -0.475976,0.228618 0.237988,1.076381 0,1.533618 -0.336571,0.64663 -1.259914,0.886988 -1.596485,1.533618 -0.237988,0.457236 0.237988,1.076381 0,1.533618 -0.336571,0.64663 -1.259915,0.886988 -1.596486,1.533618 -0.237988,0.457236 0.237988,1.076381 0,1.533617 -0.336571,0.64663 -1.064321,1.022412 -1.596485,1.533618 0,1.022412 0.336571,2.097291 0,3.067236 -0.360351,1.038489 -4.179688,3.42934 -4.789457,4.600854 -0.237988,0.457236 0.376291,1.17214 0,1.533618 -0.376295,0.361476 -1.220197,-0.361478 -1.596489,0 -0.376292,0.361476 0,1.022411 0,1.533617 0,0.511206 0,1.022412 0,1.533618 0,1.066693 -0.288669,7.113482 0,7.66809 0.336571,0.64663 1.259914,0.886988 1.596489,1.533618 0.237988,0.457236 -0.237988,1.076381 0,1.533614 1.972777,3.79019 1.596485,-0.529368 1.596485,3.067235"
       id="path3342"
       inkscape:connector-curvature="0" />
    <path
       style="opacity:1;fill:#ffcc00;fill-opacity:1;stroke:#000000;stroke-width:0.934843;stroke-linejoin:round;stroke-miterlimit:4;stroke-dasharray:none;stroke-opacity:0.16470588"
       d="m 79.036582,72.286154 a 39.181236,44.794033 71.543982 0 0 -28.240465,46.772356 39.181236,44.794033 71.543982 0 0 28.330084,27.64493 36.595489,52.2221 74.842681 0 0 7.113005,-1.33953 36.595489,52.2221 74.842681 0 0 34.070894,-19.92578 37.45834,47.259244 73.804446 0 1 -18.75153,-22.41877 37.45834,47.259244 73.804446 0 1 6.6688,-27.66002 36.595489,52.2221 74.842681 0 0 -29.190788,-3.073186 z"
       id="path3439"
       inkscape:connector-curvature="0" />
    <ellipse
       style="opacity:1;fill:#ffffff;fill-opacity:1;stroke:#000000;stroke-width:0.59994632;stroke-linejoin:round;stroke-miterlimit:4;stroke-dasharray:none;stroke-opacity:0.16470588"
       id="path3447"
       cx="140.86086"
       cy="68.968124"
       rx="5.8984637"
       ry="7.0603876" />
    <text
       xml:space="preserve"
       style="font-style:normal;font-variant:normal;font-weight:300;font-stretch:normal;font-size:43.77937317px;line-height:125%;font-family:Helvetica;-inkscape-font-specification:'Helvetica, Light';text-align:start;letter-spacing:0px;word-spacing:0px;writing-mode:lr-tb;text-anchor:start;fill:#000000;fill-opacity:1;stroke:none;stroke-width:1px;stroke-linecap:butt;stroke-linejoin:miter;stroke-opacity:1"
       x="230.40462"
       y="65.394516"
       id="text3449"
       sodipodi:linespacing="125%"
       transform="scale(1.11087,0.90019533)"><tspan
         sodipodi:role="line"
         x="230.40462"
         y="65.394516"
         id="tspan3453"
         style="text-align:end;text-anchor:end">cute</tspan><tspan
         sodipodi:role="line"
         x="230.40462"
         y="120.11874"
         id="tspan3459"
         style="text-align:end;text-anchor:end">bee</tspan><tspan
         sodipodi:role="line"
         x="230.4046"
         y="174.84296"
         id="tspan3457"
         style="text-align:end;text-anchor:end">drawing</tspan></text>
  </g>
</svg>
